<svg xmlns="http://www.w3.org/2000/svg" xmlns:xlink="http://www.w3.org/1999/xlink" id="Layer_1" width="100" height="100" x="0" y="0" enable-background="new 0 0 100 100" version="1.1" viewBox="0 0 100 100" xml:space="preserve"><circle cx="49.353" cy="51.286" r="32.953" fill="#DEB958"/><circle cx="51.228" cy="49.411" r="31.078" fill="#EEC65E"/><circle cx="38.976" cy="49.411" r="3.075" fill="#DEB958"/><circle cx="57.553" cy="34.952" r="6.325" fill="#DEB958"/><circle cx="69.877" cy="55.564" r="4.325" fill="#DEB958"/><circle cx="49.265" cy="68.75" r="4.064" fill="#DEB958"/><circle cx="24.214" cy="58.877" r="4.064" fill="#DEB958"/><circle cx="36.793" cy="28.627" r="4.064" fill="#DEB958"/><circle cx="69.127" cy="72.325" r="3.575" fill="#DEB958"/><circle cx="76.226" cy="38.027" r="3.075" fill="#DEB958"/><circle cx="58.679" cy="34.952" r="4.875" fill="#7A3440"/><circle cx="36.793" cy="30.077" r="3.409" fill="#7A3440"/><circle cx="50" cy="69.405" r="3.409" fill="#7A3440"/><circle cx="39.967" cy="50.349" r="2.519" fill="#7A3440"/><circle cx="24.214" cy="58.877" r="3.051" fill="#7A3440"/><circle cx="69.877" cy="55.564" r="3.051" fill="#7A3440"/><ellipse cx="69.728" cy="72.582" fill="#7A3440" rx="2.902" ry="2.82"/><ellipse cx="75.226" cy="37.827" fill="#7A3440" rx="2.902" ry="2.82"/></svg>